<?xml version="1.0" encoding="UTF-8"?>
<svg version="1.1" xmlns="http://www.w3.org/2000/svg" width="133" height="132">
<path d="M0 0 C43.89 0 87.78 0 133 0 C133 43.56 133 87.12 133 132 C89.11 132 45.22 132 0 132 C0 88.44 0 44.88 0 0 Z " fill="#FBFBFB" transform="translate(0,0)"/>
<path d="M0 0 C8.27978837 1.18282691 8.27978837 1.18282691 11.89453125 5.90234375 C13.8462256 9.60573551 13.86589622 12.95670495 13 17 C10.24137931 22.51724138 10.24137931 22.51724138 6.75 23.875 C6.1725 23.91625 5.595 23.9575 5 24 C5 24.66 5 25.32 5 26 C6.19625 25.855625 7.3925 25.71125 8.625 25.5625 C11.50210951 25.52666412 12.63014254 25.69126961 14.8671875 27.55859375 C16.33322038 29.30169983 17.67614516 31.14660323 19 33 C14.545 33.495 14.545 33.495 10 34 C10.66 34.61875 11.32 35.2375 12 35.875 C14 38 14 38 14 40 C14.66 40 15.32 40 16 40 C16 50.23 16 60.46 16 71 C13.36 71 10.72 71 8 71 C8 58.46 8 45.92 8 33 C5.69 33 3.38 33 1 33 C0.99465041 38.14209966 1.02847977 43.2819458 1.09765625 48.42358398 C1.11575475 50.17025106 1.12339594 51.9170606 1.12011719 53.66381836 C1.11724211 56.18453871 1.15273608 58.70234207 1.1953125 61.22265625 C1.18621857 61.99585709 1.17712463 62.76905792 1.16775513 63.56568909 C1.31172856 69.01218993 2.7899729 71.66854502 6.65856934 75.49694824 C8 77 8 77 8.5859375 79.87109375 C8.51632813 80.71800781 8.44671875 81.56492187 8.375 82.4375 C8.32085937 83.30246094 8.26671875 84.16742188 8.2109375 85.05859375 C8.10652344 86.01958984 8.10652344 86.01958984 8 87 C3.125 84.375 3.125 84.375 2 81 C1.34 81 0.68 81 0 81 C-1.70884005 79.37660195 -3.37446717 77.70680947 -5 76 C-5.66 75.34 -6.32 74.68 -7 74 C-7.24050903 72.01315308 -7.24050903 72.01315308 -7.22705078 69.55029297 C-7.22689972 68.62948944 -7.22674866 67.70868591 -7.22659302 66.75997925 C-7.21627045 65.76410797 -7.20594788 64.76823669 -7.1953125 63.7421875 C-7.1924826 62.72399933 -7.18965271 61.70581116 -7.18673706 60.6567688 C-7.1755177 57.396061 -7.15040996 54.13562516 -7.125 50.875 C-7.11497247 48.66797271 -7.10584623 46.46094112 -7.09765625 44.25390625 C-7.07557268 38.83584428 -7.04207795 33.41794157 -7 28 C-7.93051178 27.55746384 -7.93051178 27.55746384 -8.87982178 27.10598755 C-11.35200859 25.81637529 -12.9366386 24.29018981 -14.890625 22.3046875 C-15.59960938 21.58925781 -16.30859375 20.87382813 -17.0390625 20.13671875 C-17.76867188 19.39035156 -18.49828125 18.64398438 -19.25 17.875 C-19.99507812 17.12089844 -20.74015625 16.36679687 -21.5078125 15.58984375 C-23.3431342 13.73099228 -25.1736191 11.86762995 -27 10 C-25.2890625 6.125 -25.2890625 6.125 -22.6875 5 C-17.96446579 5 -15.65797845 8.3580698 -12.4375 11.5 C-11.633125 12.325 -10.82875 13.15 -10 14 C-9.236875 14.721875 -8.47375 15.44375 -7.6875 16.1875 C-6 18 -6 18 -6 20 C-5.01 20.33 -4.02 20.66 -3 21 C-2.01 21.99 -1.02 22.98 0 24 C0 16.08 0 8.16 0 0 Z " fill="#151515" transform="translate(64,14)"/>
<path d="M0 0 C2.33333333 2 4.66666667 4 7 6 C7.56866791 6.37280594 8.13733582 6.74561188 8.72323608 7.12971497 C11.61160404 9.18862064 13.66887256 10.77163172 14.6146698 14.2802124 C14.8058106 17.03410652 14.78651147 19.71376521 14.69140625 22.47265625 C14.68849831 23.97366127 14.68849831 23.97366127 14.68553162 25.50498962 C14.6775915 28.69211422 14.62485753 31.87600612 14.5625 35.0625 C14.50547328 38.25238725 14.45915781 41.44031826 14.45018005 44.63072205 C14.44444162 46.61209977 14.41125993 48.59363626 14.3473053 50.57398987 C14.20703548 55.48155865 14.20703548 55.48155865 16.37350464 59.6803894 C18.20127095 61.19685036 18.20127095 61.19685036 21 63 C21 63.66 21 64.32 21 65 C21.99 65.495 21.99 65.495 23 66 C22.34 66 21.68 66 21 66 C21 66.66 21 67.32 21 68 C21.99 68.33 22.98 68.66 24 69 C23.505 70.485 23.505 70.485 23 72 C21.68 71.34 20.36 70.68 19 70 C18.67 70.66 18.34 71.32 18 72 C13.39031805 68.15079857 9.24656995 64.26073145 5.43359375 59.62109375 C3.21849984 57.11628728 0.56923431 55.13191783 -2 53 C-2.804375 52.030625 -3.60875 51.06125 -4.4375 50.0625 C-6.52299733 47.57007636 -8.29914148 45.90579282 -10.8125 43.9375 C-13.94389819 41.36866901 -13.94389819 41.36866901 -14.4375 38.125 C-14.293125 37.42375 -14.14875 36.7225 -14 36 C-12.35 36.99 -10.7 37.98 -9 39 C-9 38.34 -9 37.68 -9 37 C-4.68269587 37.47409648 -2.66352539 40.03396703 0.25 43.0625 C1.14203125 43.98160156 2.0340625 44.90070313 2.953125 45.84765625 C3.62859375 46.55792969 4.3040625 47.26820312 5 48 C5.19886761 43.42872198 5.34341878 38.8599965 5.43945312 34.28540039 C5.47950603 32.73221961 5.53397031 31.17933715 5.60351562 29.62719727 C6.29118321 20.58958862 6.29118321 20.58958862 3.18359375 12.44970703 C1.03913664 10.54123474 1.03913664 10.54123474 -1.26757812 9.13110352 C-1.83927734 8.75783936 -2.41097656 8.3845752 -3 8 C-3 7.34 -3 6.68 -3 6 C-4.32 5.34 -5.64 4.68 -7 4 C-4 3 -4 3 -2 3 C-1.34 2.01 -0.68 1.02 0 0 Z " fill="#F2F2F2" transform="translate(43,30)"/>
<path d="M0 0 C6.18873629 2.61831151 10.48120192 7.32512965 14.60546875 12.44921875 C16.11259341 14.2540202 16.11259341 14.2540202 19 16 C19.26697888 18.62462244 19.34832984 21.01065933 19.29296875 23.6328125 C19.28872391 24.38464813 19.28447906 25.13648376 19.28010559 25.91110229 C19.2632917 28.31609685 19.22563624 30.72025809 19.1875 33.125 C19.17245659 34.75389416 19.15876758 36.38280144 19.14648438 38.01171875 C19.11337954 42.00813434 19.06158009 46.00392582 19 50 C12.93930578 44.93695092 7.21870211 39.57210508 1.5625 34.0625 C0.64017578 33.19431641 -0.28214844 32.32613281 -1.23242188 31.43164062 C-7.83884979 24.96213349 -7.83884979 24.96213349 -8.66015625 20.05859375 C-8 17 -8 17 -7 14 C-6.34 14 -5.68 14 -5 14 C-3.37890625 15.6796875 -3.37890625 15.6796875 -1.5625 17.875 C0.58400884 20.46193722 2.16776562 22.11184374 5 24 C5 24.66 5 25.32 5 26 C5.99 26.33 6.98 26.66 8 27 C8 27.66 8 28.32 8 29 C8.66 29 9.32 29 10 29 C10.33 25.7 10.66 22.4 11 19 C9.68 18.34 8.36 17.68 7 17 C5.18359375 15.37890625 5.18359375 15.37890625 3.4375 13.5625 C2.85871094 12.96566406 2.27992187 12.36882813 1.68359375 11.75390625 C1.12800781 11.17511719 0.57242187 10.59632812 0 10 C-0.56976563 9.47277344 -1.13953125 8.94554687 -1.7265625 8.40234375 C-2.14679687 7.93957031 -2.56703125 7.47679687 -3 7 C-2.71483972 3.9582904 -1.73969465 2.60954198 0 0 Z " fill="#0E0E0E" transform="translate(30,29)"/>
<path d="M0 0 C3.36016893 1.12005631 4.69064913 2.37211797 7 5 C7 5.66 7 6.32 7 7 C7.5775 7.2475 8.155 7.495 8.75 7.75 C11.32939979 9.18299988 13.06121592 10.78424676 15 13 C15 13.66 15 14.32 15 15 C15.5775 15.2475 16.155 15.495 16.75 15.75 C19.32939979 17.18299988 21.06121592 18.78424676 23 21 C23 21.66 23 22.32 23 23 C23.8353125 23.309375 23.8353125 23.309375 24.6875 23.625 C27.24961067 25.14841716 28.69333245 26.98227393 30.5234375 29.30078125 C32.17255191 31.19857165 33.95381498 32.75423194 35.875 34.375 C39.45115793 37.41034009 42.47044536 40.68992088 45.45703125 44.30078125 C47.08567983 46.23268554 47.08567983 46.23268554 50 48 C50.29296875 50.6015625 50.29296875 50.6015625 50.1875 53.625 C50.14689453 55.12933594 50.14689453 55.12933594 50.10546875 56.6640625 C50.07066406 57.43492188 50.03585938 58.20578125 50 59 C46.60109944 57.86703315 45.66690581 56.44744408 43.49609375 53.72265625 C41.9067869 51.89267108 40.22248971 50.38041049 38.375 48.8125 C32.94297765 44.18598666 28.00626824 39.07623162 23 34 C22.23171875 33.27167969 21.4634375 32.54335937 20.671875 31.79296875 C19 30 19 30 19 28 C18.01 27.67 17.02 27.34 16 27 C14.28891311 25.37897032 12.62746694 23.70496537 11 22 C10.154375 21.175 9.30875 20.35 8.4375 19.5 C6 17 6 17 3.8125 14.25 C2.19690923 11.92512612 2.19690923 11.92512612 0 11 C0 7.37 0 3.74 0 0 Z " fill="#131313" transform="translate(22,64)"/>
<path d="M0 0 C4.81739937 -0.68819991 7.51614486 -0.98923676 11.63671875 1.7578125 C17.8513949 7.51394896 17.8513949 7.51394896 18.375 12.75 C16.56450381 17.02935462 14.19590563 19.90204718 10 22 C5.17089 22.52137294 1.25833154 22.73402673 -3 20.25 C-6.23681224 16.60858623 -7 14.94918543 -7 10 C-4.69 10 -2.38 10 0 10 C0 6.7 0 3.4 0 0 Z " fill="#0A0A0A" transform="translate(103,75)"/>
<path d="M0 0 C6.23807363 1.03967894 7.29898235 1.33941948 10.859375 5.90234375 C12.86739661 9.59517801 12.862654 12.9447889 12 17 C10.21325424 20.63966729 9.01245189 22.45673313 5.4375 24.375 C3 25 3 25 0 25 C0 16.75 0 8.5 0 0 Z " fill="#060606" transform="translate(65,14)"/>
<path d="M0 0 C1.65 0.99 3.3 1.98 5 3 C5 3.66 5 4.32 5 5 C5.66 5 6.32 5 7 5 C7 15.23 7 25.46 7 36 C4.36 36 1.72 36 -1 36 C-0.67 24.12 -0.34 12.24 0 0 Z " fill="#050505" transform="translate(73,49)"/>
<path d="M0 0 C9.94126706 -0.78346238 9.94126706 -0.78346238 14.125 2.3125 C16 5 16 5 17 8 C14.36 8.33 11.72 8.66 9 9 C9.804375 9.804375 10.60875 10.60875 11.4375 11.4375 C15 15 15 15 15.09765625 18.37890625 C15.09098369 19.77347077 15.07902532 21.16801743 15.0625 22.5625 C15.05798828 23.27341797 15.05347656 23.98433594 15.04882812 24.71679688 C15.03700864 26.47790013 15.01907263 28.23896036 15 30 C12.36 30 9.72 30 7 30 C6.99589111 29.32420898 6.99178223 28.64841797 6.98754883 27.95214844 C6.95461055 24.883882 6.8839674 21.81760074 6.8125 18.75 C6.80669922 17.68652344 6.80089844 16.62304688 6.79492188 15.52734375 C6.80998194 9.35596058 6.80998194 9.35596058 3.51171875 4.453125 C2.68285156 3.97359375 1.85398437 3.4940625 1 3 C0.67 2.01 0.34 1.02 0 0 Z " fill="#101010" transform="translate(81,55)"/>
<path d="M0 0 C1.11924223 1.15421855 2.23808872 2.30882234 3.35546875 3.46484375 C5.01051615 5.077589 5.01051615 5.077589 7.11328125 6.50390625 C12.76483543 10.66979433 12.76483543 10.66979433 13.51171875 14.89453125 C13.50114522 17.64012363 13.35430931 20.27870768 13 23 C9.23369729 21.74456576 8.40558606 20.11311137 6 17 C3.66167232 14.54475594 1.42702327 12.31161157 -1.3125 10.3125 C-2.1478125 9.6628125 -2.1478125 9.6628125 -3 9 C-3 8.34 -3 7.68 -3 7 C-3.66 6.67 -4.32 6.34 -5 6 C-2.25 1.125 -2.25 1.125 0 0 Z " fill="#F2F2F2" transform="translate(28,36)"/>
<path d="M0 0 C5.01113235 1.4317521 6.94469549 3.98445693 10 8 C9.34 8 8.68 8 8 8 C8 9.65 8 11.3 8 13 C5.1875 12.875 5.1875 12.875 2 12 C-0.44384145 8.6101554 -1.07426163 6.80202561 -0.6875 2.625 C-0.460625 1.75875 -0.23375 0.8925 0 0 Z " fill="#0D0D0D" transform="translate(43,86)"/>
<path d="M0 0 C5.875 0.875 5.875 0.875 7 2 C7.07226502 3.85287502 7.0838122 5.70833878 7.0625 7.5625 C7.05347656 8.57441406 7.04445313 9.58632812 7.03515625 10.62890625 C7.02355469 11.41136719 7.01195313 12.19382812 7 13 C3.70303895 11.90101298 2.95329411 11.05402613 0.8125 8.4375 C0.28269531 7.79683594 -0.24710937 7.15617187 -0.79296875 6.49609375 C-1.39044922 5.75552734 -1.39044922 5.75552734 -2 5 C-1.34 3.35 -0.68 1.7 0 0 Z " fill="#0E0E0E" transform="translate(65,110)"/>
<path d="M0 0 C2 1 4 2 6 3 C6 6.63 6 10.26 6 14 C4 13 4 13 3.0625 10.5625 C2.15452711 7.70136041 2.15452711 7.70136041 -1 6 C-1.25 3.4375 -1.25 3.4375 -1 1 C-0.67 0.67 -0.34 0.34 0 0 Z " fill="#F9F9F9" transform="translate(35,45)"/>
<path d="M0 0 C0.99 0.495 0.99 0.495 2 1 C2 1.66 2 2.32 2 3 C2.639375 3.28875 3.27875 3.5775 3.9375 3.875 C6 5 6 5 7 7 C5.0625 7.5625 5.0625 7.5625 3 8 C2.67 7.67 2.34 7.34 2 7 C1.67 14.59 1.34 22.18 1 30 C0.67 30 0.34 30 0 30 C0 20.1 0 10.2 0 0 Z " fill="#CFCFCF" transform="translate(80,55)"/>
<path d="M0 0 C1.98 0.66 3.96 1.32 6 2 C6.33 3.65 6.66 5.3 7 7 C6.67 7 6.34 7 6 7 C6.061875 8.11375 6.12375 9.2275 6.1875 10.375 C6.125625 11.57125 6.06375 12.7675 6 14 C5.01 14.66 4.02 15.32 3 16 C3.03480469 15.26394531 3.06960937 14.52789062 3.10546875 13.76953125 C3.42963774 6.37520524 3.42963774 6.37520524 0 0 Z " fill="#D8D8D8" transform="translate(73,17)"/>
<path d="M0 0 C3.68802044 1.22934015 4.72356973 2.93859378 7 6 C5.68 6 4.36 6 3 6 C2.34 7.65 1.68 9.3 1 11 C0.67 11 0.34 11 0 11 C0 7.37 0 3.74 0 0 Z " fill="#373737" transform="translate(22,64)"/>
<path d="M0 0 C3.34249629 0.59687434 5.46436342 1.73603877 8 4 C8 4.66 8 5.32 8 6 C8.66 6.33 9.32 6.66 10 7 C9.34 7.66 8.68 8.32 8 9 C7.4225 8.2575 6.845 7.515 6.25 6.75 C4.27746474 4.33912357 2.23955718 2.15957299 0 0 Z " fill="#E1E1E1" transform="translate(30,49)"/>
<path d="M0 0 C0 0.66 0 1.32 0 2 C-1.27875 2.12375 -2.5575 2.2475 -3.875 2.375 C-7.34790936 2.69042399 -7.34790936 2.69042399 -10 5 C-10 3.68 -10 2.36 -10 1 C-3.375 -1.125 -3.375 -1.125 0 0 Z " fill="#282828" transform="translate(98,61)"/>
<path d="M0 0 C4.875 2.75 4.875 2.75 6 5 C4.125 5.625 4.125 5.625 2 6 C1.34 5.34 0.68 4.68 0 4 C0 2.68 0 1.36 0 0 Z " fill="#DEDEDE" transform="translate(81,57)"/>
<path d="M0 0 C1.32 0.99 2.64 1.98 4 3 C3.34 4.32 2.68 5.64 2 7 C0.68 5.35 -0.64 3.7 -2 2 C-1.34 2 -0.68 2 0 2 C0 1.34 0 0.68 0 0 Z " fill="#E2E2E2" transform="translate(35,72)"/>
<path d="M0 0 C0.33 0.99 0.66 1.98 1 3 C0.05125 3.12375 -0.8975 3.2475 -1.875 3.375 C-5.08667191 3.71687177 -5.08667191 3.71687177 -7 6 C-7.66 4.68 -8.32 3.36 -9 2 C-6.03 2 -3.06 2 0 2 C0 1.34 0 0.68 0 0 Z " fill="#DADADA" transform="translate(98,61)"/>
<path d="M0 0 C0.99 0 1.98 0 3 0 C4.6875 2 4.6875 2 6 4 C5.01 4.66 4.02 5.32 3 6 C0 1.125 0 1.125 0 0 Z " fill="#111111" transform="translate(90,56)"/>
</svg>
